<svg width="45px" height="45px" viewBox="0 7 45 45" version="1.1" xmlns="http://www.w3.org/2000/svg" xmlns:xlink="http://www.w3.org/1999/xlink">
  <defs>
    <linearGradient x1="100%" y1="0%" x2="0%" y2="100%" id="linearGradient-1">
      <stop stopColor="#9797E0" offset="0%"></stop>
      <stop stopColor="#61D2D6" offset="100%"></stop>
    </linearGradient>
  </defs>
  <g id="who-see-icon" stroke="none" strokeWidth="1" fill="none" fillRule="evenodd" transform="translate(0.000000, 7.000000)">
    <path d="M22.5,45 C34.9264069,45 45,34.9264069 45,22.5 C45,10.0735931 34.9264069,0 22.5,0 C10.0735931,0 0,10.0735931 0,22.5 C0,34.9264069 10.0735931,45 22.5,45 Z" id="Oval-20" fill="url(#linearGradient-1)"></path>
    <g id="ui-32px-outline-1_eye-19" transform="translate(9.000000, 14.000000)" strokeinecap="round" strokeWidth="2" stroke="#FFFFFF" strokeinejoin="round">
      <g id="Group">
        <path d="M0,8 C0,8 6.3,0 14,0 C21.6,0 28,8 28,8 C28,8 21.6,16 14,16 C6.4,16 0,8 0,8 L0,8 Z" id="Shape"></path>
        <circle id="Oval" cx="14" cy="6" r="6"></circle>
        <path d="M14,8 C12.9,8 12,7.1 12,6" id="Shape"></path>
      </g>
    </g>
  </g>
</svg>
