<?xml version="1.0" encoding="utf-8"?>
<!-- Generator: Adobe Illustrator 22.1.0, SVG Export Plug-In . SVG Version: 6.00 Build 0)  -->
<svg version="1.1" id="Layer_1" xmlns="http://www.w3.org/2000/svg" xmlns:xlink="http://www.w3.org/1999/xlink" x="0px" y="0px"
	 viewBox="0 0 74 71.9" style="enable-background:new 0 0 74 71.9;" xml:space="preserve">
<style type="text/css">
	.st0{opacity:0.79;fill:url(#SVGID_1_);}
	.st1{opacity:0.79;fill:url(#SVGID_2_);}
	.st2{opacity:0.79;fill:url(#SVGID_3_);}
	.st3{opacity:0.79;fill:url(#SVGID_4_);}
	.st4{opacity:0.79;fill:url(#SVGID_5_);}
	.st5{opacity:0.79;fill:url(#SVGID_6_);}
	.st6{opacity:0.79;fill:url(#SVGID_7_);}
	.st7{opacity:0.79;fill:url(#SVGID_8_);}
	.st8{opacity:0.79;fill:url(#SVGID_9_);}
	.st9{opacity:0.79;fill:url(#SVGID_10_);}
	.st10{opacity:0.79;fill:url(#SVGID_11_);}
	.st11{opacity:0.79;fill:url(#SVGID_12_);}
	.st12{opacity:0.79;fill:url(#SVGID_13_);}
	.st13{opacity:0.79;fill:url(#SVGID_14_);}
	.st14{opacity:0.79;fill:url(#SVGID_15_);}
	.st15{opacity:0.79;fill:url(#SVGID_16_);}
	.st16{opacity:0.79;fill:url(#SVGID_17_);}
	.st17{opacity:0.79;fill:url(#SVGID_18_);}
</style>
<g>
	<linearGradient id="SVGID_1_" gradientUnits="userSpaceOnUse" x1="21.6257" y1="51.3511" x2="52.4226" y2="20.5542">
		<stop  offset="0" style="stop-color:#8282D9"/>
		<stop  offset="1" style="stop-color:#4DCCD1"/>
	</linearGradient>
	<path class="st0" d="M37,14.2c-12,0-21.8,9.7-21.8,21.8S25,57.7,37,57.7S58.8,48,58.8,36S49.1,14.2,37,14.2z M47.6,43.3l-2,2.8
		c-0.4,0.6-1.2,0.7-1.8,0.3l-9.2-6.7C34.2,39.4,34,39,34,38.6V20.7c0-0.7,0.6-1.3,1.3-1.3h3.5c0.7,0,1.3,0.6,1.3,1.3v15.4l7.3,5.3
		C47.9,41.9,48.1,42.7,47.6,43.3z"/>
	<linearGradient id="SVGID_2_" gradientUnits="userSpaceOnUse" x1="11.9218" y1="61.0549" x2="62.1264" y2="10.8503">
		<stop  offset="0" style="stop-color:#8282D9"/>
		<stop  offset="1" style="stop-color:#4DCCD1"/>
	</linearGradient>
	<path class="st1" d="M37,0.5C17.4,0.5,1.5,16.3,1.5,36c0,19.6,15.9,35.5,35.5,35.5c19.6,0,35.5-15.9,35.5-35.5
		C72.5,16.3,56.6,0.5,37,0.5z M37,63c-14.9,0-27-12.1-27-27C10,21,22.1,9,37,9S64,21,64,36C64,50.9,51.9,63,37,63z"/>
</g>
</svg>
