<?xml version="1.0" encoding="utf-8"?>
<!-- Generator: Adobe Illustrator 22.1.0, SVG Export Plug-In . SVG Version: 6.00 Build 0)  -->
<svg version="1.1" id="Layer_1" xmlns="http://www.w3.org/2000/svg" xmlns:xlink="http://www.w3.org/1999/xlink" x="0px" y="0px"
	 viewBox="0 0 74 71.9" style="enable-background:new 0 0 74 71.9;" xml:space="preserve">
<style type="text/css">
	.st0{opacity:0.79;fill:url(#SVGID_1_);}
	.st1{opacity:0.79;fill:url(#SVGID_2_);}
	.st2{opacity:0.79;fill:url(#SVGID_3_);}
	.st3{opacity:0.79;fill:url(#SVGID_4_);}
	.st4{opacity:0.79;fill:url(#SVGID_5_);}
	.st5{opacity:0.79;fill:url(#SVGID_6_);}
	.st6{opacity:0.79;fill:url(#SVGID_7_);}
	.st7{opacity:0.79;fill:url(#SVGID_8_);}
	.st8{opacity:0.79;fill:url(#SVGID_9_);}
	.st9{opacity:0.79;fill:url(#SVGID_10_);}
	.st10{opacity:0.79;fill:url(#SVGID_11_);}
	.st11{opacity:0.79;fill:url(#SVGID_12_);}
	.st12{opacity:0.79;fill:url(#SVGID_13_);}
	.st13{opacity:0.79;fill:url(#SVGID_14_);}
	.st14{opacity:0.79;fill:url(#SVGID_15_);}
	.st15{opacity:0.79;fill:url(#SVGID_16_);}
	.st16{opacity:0.79;fill:url(#SVGID_17_);}
	.st17{opacity:0.79;fill:url(#SVGID_18_);}
</style>
<linearGradient id="SVGID_1_" gradientUnits="userSpaceOnUse" x1="11.9218" y1="61.0549" x2="62.1264" y2="10.8503">
	<stop  offset="0" style="stop-color:#8282D9"/>
	<stop  offset="1" style="stop-color:#4DCCD1"/>
</linearGradient>
<path class="st0" d="M37,0.5C17.4,0.5,1.5,16.3,1.5,36c0,19.6,15.9,35.5,35.5,35.5c19.6,0,35.5-15.9,35.5-35.5
	C72.5,16.3,56.6,0.5,37,0.5z M29.9,16.9c5.3,0,9.5,4.3,9.5,9.5c0,5.3-4.3,9.5-9.5,9.5c-5.3,0-9.5-4.3-9.5-9.5
	C20.4,21.2,24.6,16.9,29.9,16.9z M46.5,51.4c0,2-1.6,3.6-3.6,3.6H16.8c-2,0-3.6-1.6-3.6-3.6v-3.1c0-5.5,4.5-10,10-10h1.2
	c1.7,0.8,3.5,1.2,5.4,1.2c1.9,0,3.8-0.4,5.4-1.2h1.2c5.5,0,10,4.5,10,10V51.4z M60.8,36c0,0.7-0.5,1.2-1.2,1.2h-4.8v4.8
	c0,0.7-0.5,1.2-1.2,1.2h-2.4c-0.7,0-1.2-0.5-1.2-1.2v-4.8h-4.8c-0.7,0-1.2-0.5-1.2-1.2v-2.4c0-0.7,0.5-1.2,1.2-1.2h4.8v-4.8
	c0-0.7,0.5-1.2,1.2-1.2h2.4c0.7,0,1.2,0.5,1.2,1.2v4.8h4.8c0.7,0,1.2,0.5,1.2,1.2V36z"/>
</svg>
