<?xml version="1.0" encoding="utf-8"?>
<!-- Generator: Adobe Illustrator 22.1.0, SVG Export Plug-In . SVG Version: 6.00 Build 0)  -->
<svg version="1.1" id="Layer_1" xmlns="http://www.w3.org/2000/svg" xmlns:xlink="http://www.w3.org/1999/xlink" x="0px" y="0px"
	 viewBox="0 0 74 71.9" style="enable-background:new 0 0 74 71.9;" xml:space="preserve">
<style type="text/css">
	.st0{opacity:0.79;fill:url(#SVGID_1_);}
	.st1{opacity:0.79;fill:url(#SVGID_2_);}
	.st2{opacity:0.79;fill:url(#SVGID_3_);}
	.st3{opacity:0.79;fill:url(#SVGID_4_);}
	.st4{opacity:0.79;fill:url(#SVGID_5_);}
	.st5{opacity:0.79;fill:url(#SVGID_6_);}
	.st6{opacity:0.79;fill:url(#SVGID_7_);}
	.st7{opacity:0.79;fill:url(#SVGID_8_);}
	.st8{opacity:0.79;fill:url(#SVGID_9_);}
	.st9{opacity:0.79;fill:url(#SVGID_10_);}
	.st10{opacity:0.79;fill:url(#SVGID_11_);}
	.st11{opacity:0.79;fill:url(#SVGID_12_);}
	.st12{opacity:0.79;fill:url(#SVGID_13_);}
	.st13{opacity:0.79;fill:url(#SVGID_14_);}
	.st14{opacity:0.79;fill:url(#SVGID_15_);}
	.st15{opacity:0.79;fill:url(#SVGID_16_);}
	.st16{opacity:0.79;fill:url(#SVGID_17_);}
	.st17{opacity:0.79;fill:url(#SVGID_18_);}
</style>
<g>
	<linearGradient id="SVGID_1_" gradientUnits="userSpaceOnUse" x1="22.1251" y1="50.8304" x2="51.902" y2="21.0536">
		<stop  offset="0" style="stop-color:#8282D9"/>
		<stop  offset="1" style="stop-color:#4DCCD1"/>
	</linearGradient>
	<path class="st0" d="M24.8,53.5h9.5v-5.7c0-0.6,0.5-1,1-1h3.4c0.6,0,1,0.5,1,1v5.7h9.5V18.4l-24.4-0.1L24.8,53.5z M39.7,23.4
		c0-0.6,0.5-1,1-1h3.4c0.6,0,1,0.5,1,1v3.4c0,0.6-0.5,1-1,1h-3.4c-0.6,0-1-0.5-1-1V23.4z M39.7,31.5c0-0.6,0.5-1,1-1h3.4
		c0.6,0,1,0.5,1,1v3.4c0,0.6-0.5,1-1,1h-3.4c-0.6,0-1-0.5-1-1V31.5z M39.7,39.7c0-0.6,0.5-1,1-1h3.4c0.6,0,1,0.5,1,1v3.4
		c0,0.6-0.5,1-1,1h-3.4c-0.6,0-1-0.5-1-1V39.7z M28.9,23.4c0-0.6,0.5-1,1-1h3.4c0.6,0,1,0.5,1,1v3.4c0,0.6-0.5,1-1,1h-3.4
		c-0.6,0-1-0.5-1-1V23.4z M28.9,31.5c0-0.6,0.5-1,1-1h3.4c0.6,0,1,0.5,1,1v3.4c0,0.6-0.5,1-1,1h-3.4c-0.6,0-1-0.5-1-1V31.5z
		 M28.9,39.7c0-0.6,0.5-1,1-1h3.4c0.6,0,1,0.5,1,1v3.4c0,0.6-0.5,1-1,1h-3.4c-0.6,0-1-0.5-1-1V39.7z"/>
	<linearGradient id="SVGID_2_" gradientUnits="userSpaceOnUse" x1="11.9218" y1="61.0549" x2="62.1264" y2="10.8503">
		<stop  offset="0" style="stop-color:#8282D9"/>
		<stop  offset="1" style="stop-color:#4DCCD1"/>
	</linearGradient>
	<path class="st1" d="M37,0.5C17.4,0.5,1.5,16.3,1.5,36c0,19.6,15.9,35.5,35.5,35.5c19.6,0,35.5-15.9,35.5-35.5
		C72.5,16.3,56.6,0.5,37,0.5z M56,57.6H18v-3c0-0.6,0.5-1,1-1h1.7V16.3c0-1.1,0.9-2,2-2h28.5c1.1,0,2,0.9,2,2v37.3H55
		c0.6,0,1,0.5,1,1V57.6z"/>
</g>
</svg>
