<?xml version="1.0" encoding="utf-8"?>
<!-- Generator: Adobe Illustrator 22.1.0, SVG Export Plug-In . SVG Version: 6.00 Build 0)  -->
<svg version="1.1" id="Layer_1" xmlns="http://www.w3.org/2000/svg" xmlns:xlink="http://www.w3.org/1999/xlink" x="0px" y="0px"
	 viewBox="0 0 74 71.9" style="enable-background:new 0 0 74 71.9;" xml:space="preserve">
<style type="text/css">
	.st0{opacity:0.79;fill:url(#SVGID_1_);}
	.st1{opacity:0.79;fill:url(#SVGID_2_);}
	.st2{opacity:0.79;fill:url(#SVGID_3_);}
	.st3{opacity:0.79;fill:url(#SVGID_4_);}
	.st4{opacity:0.79;fill:url(#SVGID_5_);}
	.st5{opacity:0.79;fill:url(#SVGID_6_);}
	.st6{opacity:0.79;fill:url(#SVGID_7_);}
	.st7{opacity:0.79;fill:url(#SVGID_8_);}
	.st8{opacity:0.79;fill:url(#SVGID_9_);}
	.st9{opacity:0.79;fill:url(#SVGID_10_);}
	.st10{opacity:0.79;fill:url(#SVGID_11_);}
	.st11{opacity:0.79;fill:url(#SVGID_12_);}
	.st12{opacity:0.79;fill:url(#SVGID_13_);}
	.st13{opacity:0.79;fill:url(#SVGID_14_);}
	.st14{opacity:0.79;fill:url(#SVGID_15_);}
	.st15{opacity:0.79;fill:url(#SVGID_16_);}
	.st16{opacity:0.79;fill:url(#SVGID_17_);}
	.st17{opacity:0.79;fill:url(#SVGID_18_);}
</style>
<g>
	<linearGradient id="SVGID_1_" gradientUnits="userSpaceOnUse" x1="25.6479" y1="47.3289" x2="48.4004" y2="24.5763">
		<stop  offset="0" style="stop-color:#8282D9"/>
		<stop  offset="1" style="stop-color:#4DCCD1"/>
	</linearGradient>
	<path class="st0" d="M46.8,25.6c1.6,2.1,2.5,4.6,2.5,7.4c0,6.8-5.5,12.3-12.3,12.3s-12.3-5.5-12.3-12.3c0-2.1,0.5-4.1,1.4-5.8v0
		c0,2.8,2.3,5.1,5.1,5.1s5.1-2.3,5.1-5.1c0-1.4-0.5-2.6-1.4-3.5c-8.3,0.7-15.5,5.4-19.5,12.2c4.3,7.3,12.4,12.3,21.6,12.3
		c9.2,0,17.3-4.9,21.6-12.3C56,31.4,51.8,27.7,46.8,25.6z"/>
	<linearGradient id="SVGID_2_" gradientUnits="userSpaceOnUse" x1="11.9218" y1="61.0549" x2="62.1264" y2="10.8503">
		<stop  offset="0" style="stop-color:#8282D9"/>
		<stop  offset="1" style="stop-color:#4DCCD1"/>
	</linearGradient>
	<path class="st1" d="M37,0.5C17.4,0.5,1.5,16.3,1.5,36c0,19.6,15.9,35.5,35.5,35.5c19.6,0,35.5-15.9,35.5-35.5
		C72.5,16.3,56.6,0.5,37,0.5z M37,52.5c-10.8,0-20.3-5.8-25.4-14.4c-0.8-1.4-0.8-3,0-4.4c5.1-8.6,14.6-14.4,25.4-14.4
		c10.8,0,20.3,5.8,25.4,14.4c0.8,1.4,0.8,3,0,4.4C57.3,46.8,47.8,52.5,37,52.5z"/>
</g>
</svg>
