<?xml version="1.0" encoding="utf-8"?>
<!-- Generator: Adobe Illustrator 22.1.0, SVG Export Plug-In . SVG Version: 6.00 Build 0)  -->
<svg version="1.1" id="Layer_1" xmlns="http://www.w3.org/2000/svg" xmlns:xlink="http://www.w3.org/1999/xlink" x="0px" y="0px"
	 viewBox="0 0 74 71.9" style="enable-background:new 0 0 74 71.9;" xml:space="preserve">
<style type="text/css">
	.st0{opacity:0.79;fill:url(#SVGID_1_);}
	.st1{opacity:0.79;fill:url(#SVGID_2_);}
	.st2{opacity:0.79;fill:url(#SVGID_3_);}
	.st3{opacity:0.79;fill:url(#SVGID_4_);}
	.st4{opacity:0.79;fill:url(#SVGID_5_);}
	.st5{opacity:0.79;fill:url(#SVGID_6_);}
	.st6{opacity:0.79;fill:url(#SVGID_7_);}
	.st7{opacity:0.79;fill:url(#SVGID_8_);}
	.st8{opacity:0.79;fill:url(#SVGID_9_);}
	.st9{opacity:0.79;fill:url(#SVGID_10_);}
	.st10{opacity:0.79;fill:url(#SVGID_11_);}
	.st11{opacity:0.79;fill:url(#SVGID_12_);}
	.st12{opacity:0.79;fill:url(#SVGID_13_);}
	.st13{opacity:0.79;fill:url(#SVGID_14_);}
	.st14{opacity:0.79;fill:url(#SVGID_15_);}
	.st15{opacity:0.79;fill:url(#SVGID_16_);}
	.st16{opacity:0.79;fill:url(#SVGID_17_);}
	.st17{opacity:0.79;fill:url(#SVGID_18_);}
</style>
<g>
	<linearGradient id="SVGID_1_" gradientUnits="userSpaceOnUse" x1="33.6313" y1="27.1311" x2="40.417" y2="20.3454">
		<stop  offset="0" style="stop-color:#9797E0"/>
		<stop  offset="1" style="stop-color:#FF6581"/>
	</linearGradient>
	<rect x="31.6" y="22.4" class="st0" width="10.9" height="2.7"/>
	<linearGradient id="SVGID_2_" gradientUnits="userSpaceOnUse" x1="11.9218" y1="61.0549" x2="62.1264" y2="10.8503">
		<stop  offset="0" style="stop-color:#9797E0"/>
		<stop  offset="1" style="stop-color:#FF6581"/>
	</linearGradient>
	<path class="st1" d="M37,0.5C17.4,0.5,1.5,16.3,1.5,36c0,19.6,15.9,35.5,35.5,35.5c19.6,0,35.5-15.9,35.5-35.5
		C72.5,16.3,56.6,0.5,37,0.5z M58.7,50.9c0,2.2-1.8,4.1-4.1,4.1H19.4c-2.2,0-4.1-1.8-4.1-4.1V38.7h16.3v1.7c0,0.6,0.5,1,1,1h8.8
		c0.6,0,1-0.5,1-1v-1.7h16.3V50.9z M58.7,36H15.3v-6.8c0-2.2,1.8-4.1,4.1-4.1h6.8V21c0-2.2,1.8-4.1,4.1-4.1h13.6
		c2.2,0,4.1,1.8,4.1,4.1v4.1h6.8c2.2,0,4.1,1.8,4.1,4.1V36z"/>
</g>
</svg>
