<?xml version="1.0" encoding="utf-8"?>
<!-- Generator: Adobe Illustrator 22.1.0, SVG Export Plug-In . SVG Version: 6.00 Build 0)  -->
<svg version="1.1" id="Layer_1" xmlns="http://www.w3.org/2000/svg" xmlns:xlink="http://www.w3.org/1999/xlink" x="0px" y="0px"
	 viewBox="0 0 74 71.9" style="enable-background:new 0 0 74 71.9;" xml:space="preserve">
<style type="text/css">
	.st0{opacity:0.79;fill:url(#SVGID_1_);}
	.st1{opacity:0.79;fill:url(#SVGID_2_);}
	.st2{opacity:0.79;fill:url(#SVGID_3_);}
	.st3{opacity:0.79;fill:url(#SVGID_4_);}
	.st4{opacity:0.79;fill:url(#SVGID_5_);}
	.st5{opacity:0.79;fill:url(#SVGID_6_);}
	.st6{opacity:0.79;fill:url(#SVGID_7_);}
	.st7{opacity:0.79;fill:url(#SVGID_8_);}
	.st8{opacity:0.79;fill:url(#SVGID_9_);}
	.st9{opacity:0.79;fill:url(#SVGID_10_);}
	.st10{opacity:0.79;fill:url(#SVGID_11_);}
	.st11{opacity:0.79;fill:url(#SVGID_12_);}
	.st12{opacity:0.79;fill:url(#SVGID_13_);}
	.st13{opacity:0.79;fill:url(#SVGID_14_);}
	.st14{opacity:0.79;fill:url(#SVGID_15_);}
	.st15{opacity:0.79;fill:url(#SVGID_16_);}
	.st16{opacity:0.79;fill:url(#SVGID_17_);}
	.st17{opacity:0.79;fill:url(#SVGID_18_);}
</style>
<linearGradient id="SVGID_1_" gradientUnits="userSpaceOnUse" x1="11.9218" y1="61.0549" x2="62.1264" y2="10.8503">
	<stop  offset="0" style="stop-color:#9797E0"/>
	<stop  offset="1" style="stop-color:#FF6581"/>
</linearGradient>
<path class="st0" d="M37,0.5C17.4,0.5,1.5,16.3,1.5,36c0,19.6,15.9,35.5,35.5,35.5c19.6,0,35.5-15.9,35.5-35.5
	C72.5,16.3,56.6,0.5,37,0.5z M36.6,19l16.2,13.6l-2.7,3.3L33.9,22.3L36.6,19z M30.4,27.8l19.2,8.9l-1.8,3.8l-19.1-8.9L30.4,27.8z
	 M26.8,37.4l20.7,4.4l-0.9,4.1l-20.7-4.3L26.8,37.4z M25.5,46.9h21.1v4.2H25.5V46.9z M55,59.6H17V42.7h4.2v12.7h29.5V42.7H55V59.6z
	 M53.6,31.8L41,14.8l3.4-2.5L57,29.2L53.6,31.8z"/>
</svg>
