<?xml version="1.0" encoding="utf-8"?>
<!-- Generator: Adobe Illustrator 22.1.0, SVG Export Plug-In . SVG Version: 6.00 Build 0)  -->
<svg version="1.1" id="Layer_1" xmlns="http://www.w3.org/2000/svg" xmlns:xlink="http://www.w3.org/1999/xlink" x="0px" y="0px"
	 viewBox="0 0 74 71.9" style="enable-background:new 0 0 74 71.9;" xml:space="preserve">
<style type="text/css">
	.st0{opacity:0.79;fill:url(#SVGID_1_);}
	.st1{opacity:0.79;fill:url(#SVGID_2_);}
	.st2{opacity:0.79;fill:url(#SVGID_3_);}
	.st3{opacity:0.79;fill:url(#SVGID_4_);}
	.st4{opacity:0.79;fill:url(#SVGID_5_);}
	.st5{opacity:0.79;fill:url(#SVGID_6_);}
	.st6{opacity:0.79;fill:url(#SVGID_7_);}
	.st7{opacity:0.79;fill:url(#SVGID_8_);}
	.st8{opacity:0.79;fill:url(#SVGID_9_);}
	.st9{opacity:0.79;fill:url(#SVGID_10_);}
	.st10{opacity:0.79;fill:url(#SVGID_11_);}
	.st11{opacity:0.79;fill:url(#SVGID_12_);}
	.st12{opacity:0.79;fill:url(#SVGID_13_);}
	.st13{opacity:0.79;fill:url(#SVGID_14_);}
	.st14{opacity:0.79;fill:url(#SVGID_15_);}
	.st15{opacity:0.79;fill:url(#SVGID_16_);}
	.st16{opacity:0.79;fill:url(#SVGID_17_);}
	.st17{opacity:0.79;fill:url(#SVGID_18_);}
</style>
<g>
	<linearGradient id="SVGID_1_" gradientUnits="userSpaceOnUse" x1="22.5031" y1="30.757" x2="26.0064" y2="27.2536">
		<stop  offset="0" style="stop-color:#9797E0"/>
		<stop  offset="1" style="stop-color:#FF6581"/>
	</linearGradient>
	<path class="st0" d="M20.7,26.6v1.2c0,0.8,0.8,2.3,2.6,3.6c0.9,0.7,1.9,1.2,3,1.6c-0.5-1.8-0.9-3.9-0.9-6.3H20.7z"/>
	<linearGradient id="SVGID_2_" gradientUnits="userSpaceOnUse" x1="46.8112" y1="31.9802" x2="52.7648" y2="26.0266">
		<stop  offset="0" style="stop-color:#9797E0"/>
		<stop  offset="1" style="stop-color:#FF6581"/>
	</linearGradient>
	<path class="st1" d="M47.7,32.9c1.1-0.4,2.1-0.9,3-1.6c1.3-0.9,2.6-2.4,2.6-3.6v-1.2h-4.7C48.6,29,48.2,31.1,47.7,32.9z"/>
	<linearGradient id="SVGID_3_" gradientUnits="userSpaceOnUse" x1="11.9218" y1="61.0549" x2="62.1264" y2="10.8503">
		<stop  offset="0" style="stop-color:#9797E0"/>
		<stop  offset="1" style="stop-color:#FF6581"/>
	</linearGradient>
	<path class="st2" d="M37,0.5C17.4,0.5,1.5,16.3,1.5,36c0,19.6,15.9,35.5,35.5,35.5c19.6,0,35.5-15.9,35.5-35.5
		C72.5,16.3,56.6,0.5,37,0.5z M58,27.8c0,2.6-1.6,5.3-4.5,7.3c-2.3,1.7-5.1,2.7-8,3c-2.3,3.8-5,5.4-5,5.4v5.2H44
		c2.6,0,4.7,1.5,4.7,4.1v0.9c0,0.5-0.4,0.9-0.9,0.9H26.2c-0.5,0-0.9-0.4-0.9-0.9v-0.9c0-2.6,2.1-4.1,4.7-4.1h3.5v-5.2
		c0,0-2.7-1.6-5-5.4c-2.9-0.3-5.7-1.4-8-3c-2.9-2.1-4.5-4.7-4.5-7.3v-4.1c0-1,0.8-1.8,1.8-1.8h7.6V19c0-1,0.8-1.8,1.8-1.8h19.8
		c1,0,1.8,0.8,1.8,1.8V22h7.6c1,0,1.8,0.8,1.8,1.8V27.8z"/>
</g>
</svg>
