<?xml version="1.0" encoding="utf-8"?>
<!-- Generator: Adobe Illustrator 22.1.0, SVG Export Plug-In . SVG Version: 6.00 Build 0)  -->
<svg version="1.1" id="Layer_1" xmlns="http://www.w3.org/2000/svg" xmlns:xlink="http://www.w3.org/1999/xlink" x="0px" y="0px"
	 viewBox="0 0 160 28" style="enable-background:new 0 0 160 28;" xml:space="preserve">
<style type="text/css">
	.st0{fill:#FFFFFF;}
	.st1{fill:#FFFF00;}
</style>
<path class="st0" d="M0,0v28h160V0H0z M25.7,25.9L18,21.8l-7.7,4.1l1.5-8.6l-6.2-6.1l8.6-1.3L18,2.1l3.9,7.8l8.6,1.3l-6.2,6.1
	L25.7,25.9z M56.7,25.9L49,21.8l-7.7,4.1l1.5-8.6l-6.2-6.1l8.6-1.3L49,2.1l3.9,7.8l8.6,1.3l-6.2,6.1L56.7,25.9z M87.7,25.9L80,21.8
	l-7.7,4.1l1.5-8.6l-6.2-6.1l8.6-1.3L80,2.1l3.9,7.8l8.6,1.3l-6.2,6.1L87.7,25.9z M118.7,25.9l-7.7-4.1l-7.7,4.1l1.5-8.6l-6.2-6.1
	l8.6-1.3l3.9-7.8l3.9,7.8l8.6,1.3l-6.2,6.1L118.7,25.9z M149.7,25.9l-7.7-4.1l-7.7,4.1l1.5-8.6l-6.2-6.1l8.6-1.3l3.9-7.8l3.9,7.8
	l8.6,1.3l-6.2,6.1L149.7,25.9z"/>
</svg>
