<?xml version="1.0" encoding="utf-8"?>
<!-- Generator: Adobe Illustrator 22.1.0, SVG Export Plug-In . SVG Version: 6.00 Build 0)  -->
<svg version="1.1" id="Layer_1" xmlns="http://www.w3.org/2000/svg" xmlns:xlink="http://www.w3.org/1999/xlink" x="0px" y="0px"
	 viewBox="0 0 149 28" style="enable-background:new 0 0 149 28;" xml:space="preserve">
<style type="text/css">
	.st0{fill:#FFFF00;}
	.st1{fill:#FFFFFF;}
</style>
<path class="st1" d="M0,0v11.2l8.6-1.3l3.9-7.8l3.9,7.8l8.6,1.3l-6.2,6.1l1.5,8.6l-7.7-4.1l-7.7,4.1l1.5-8.6L0,11.2V28h149V11.2
	l-6.2,6.1l1.5,8.6l-7.7-4.1l-7.7,4.1l1.5-8.6l-6.2-6.1l8.6-1.3l3.9-7.8l3.9,7.8l8.6,1.3V0H0z M51.2,25.9l-7.7-4.1l-7.7,4.1l1.5-8.6
	L31,11.2l8.6-1.3l3.9-7.8l3.9,7.8l8.6,1.3l-6.2,6.1L51.2,25.9z M82.2,25.9l-7.7-4.1l-7.7,4.1l1.5-8.6L62,11.2l8.6-1.3l3.9-7.8
	l3.9,7.8l8.6,1.3l-6.2,6.1L82.2,25.9z M113.2,25.9l-7.7-4.1l-7.7,4.1l1.5-8.6L93,11.2l8.6-1.3l3.9-7.8l3.9,7.8l8.6,1.3l-6.2,6.1
	L113.2,25.9z"/>
</svg>
