<?xml version="1.0" encoding="utf-8"?>
<!-- Generator: Adobe Illustrator 22.1.0, SVG Export Plug-In . SVG Version: 6.00 Build 0)  -->
<svg version="1.1" id="Layer_1" xmlns="http://www.w3.org/2000/svg" xmlns:xlink="http://www.w3.org/1999/xlink" x="0px" y="0px"
	 viewBox="0 0 160 28" style="enable-background:new 0 0 160 28;" xml:space="preserve">
<style type="text/css">
	.st0{fill:#FFFFFF;}
	.st1{fill:#FFFF00;}
</style>
<path class="st0" d="M0,0v28h160V0H0z M30.1,12.6l-4.9,4.8l1.2,6.8c0.2,1.2-1.1,2.1-2.2,1.6L18,22.6l-6.1,3.2
	c-1.1,0.6-2.4-0.3-2.2-1.6l1.2-6.8l-4.9-4.8C5,11.7,5.5,10.2,6.8,10l6.8-1l3.1-6.2c0.6-1.1,2.1-1.1,2.7,0L22.4,9l6.8,1
	C30.5,10.2,31,11.7,30.1,12.6z M61.1,12.6l-4.9,4.8l1.2,6.8c0.2,1.2-1.1,2.1-2.2,1.6L49,22.6l-6.1,3.2c-1.1,0.6-2.4-0.3-2.2-1.6
	l1.2-6.8l-4.9-4.8c-0.9-0.9-0.4-2.4,0.8-2.6l6.8-1l3.1-6.2c0.6-1.1,2.1-1.1,2.7,0L53.4,9l6.8,1C61.5,10.2,62,11.7,61.1,12.6z
	 M92.1,12.6l-4.9,4.8l1.2,6.8c0.2,1.2-1.1,2.1-2.2,1.6L80,22.6l-6.1,3.2c-1.1,0.6-2.4-0.3-2.2-1.6l1.2-6.8l-4.9-4.8
	c-0.9-0.9-0.4-2.4,0.8-2.6l6.8-1l3.1-6.2c0.6-1.1,2.1-1.1,2.7,0L84.4,9l6.8,1C92.5,10.2,93,11.7,92.1,12.6z M123.1,12.6l-4.9,4.8
	l1.2,6.8c0.2,1.2-1.1,2.1-2.2,1.6l-6.1-3.2l-6.1,3.2c-1.1,0.6-2.4-0.3-2.2-1.6l1.2-6.8l-4.9-4.8c-0.9-0.9-0.4-2.4,0.8-2.6l6.8-1
	l3.1-6.2c0.6-1.1,2.1-1.1,2.7,0l3.1,6.2l6.8,1C123.5,10.2,124,11.7,123.1,12.6z M154.1,12.6l-4.9,4.8l1.2,6.8
	c0.2,1.2-1.1,2.1-2.2,1.6l-6.1-3.2l-6.1,3.2c-1.1,0.6-2.4-0.3-2.2-1.6l1.2-6.8l-4.9-4.8c-0.9-0.9-0.4-2.4,0.8-2.6l6.8-1l3.1-6.2
	c0.6-1.1,2.1-1.1,2.7,0l3.1,6.2l6.8,1C154.5,10.2,155,11.7,154.1,12.6z"/>
</svg>
